<svg xmlns="http://www.w3.org/2000/svg" xmlns:xlink="http://www.w3.org/1999/xlink" width="265.348" height="213.703" viewBox="0 0 265.348 213.703">
  <defs>
    <style>
      .cls-1, .cls-3, .cls-4 {
        fill: none;
      }

      .cls-2 {
        fill: #fff;
      }

      .cls-3 {
        stroke: #3aa2cf;
        stroke-width: 5px;
      }

      .cls-4 {
        stroke: #444b6e;
      }

      .cls-5 {
        clip-path: url(#clip-path);
      }

      .cls-6 {
        fill: #dfdfdf;
      }

      .cls-7 {
        fill: #283075;
      }

      .cls-8 {
        fill: #289dab;
      }

      .cls-9 {
        clip-path: url(#clip-path-2);
      }

      .cls-10 {
        fill: #3aa2cf;
      }

      .cls-11 {
        filter: url(#frame-3);
      }

      .cls-12 {
        filter: url(#frame-2);
      }

      .cls-13 {
        filter: url(#frame);
      }
    </style>
    <filter id="frame" x="144.68" y="42.295" width="120.668" height="115.909" filterUnits="userSpaceOnUse">
      <feOffset dy="8" input="SourceAlpha"/>
      <feGaussianBlur stdDeviation="6" result="blur"/>
      <feFlood flood-opacity="0.078"/>
      <feComposite operator="in" in2="blur"/>
      <feComposite in="SourceGraphic"/>
    </filter>
    <filter id="frame-2" x="84.291" y="0" width="139.447" height="136.499" filterUnits="userSpaceOnUse">
      <feOffset dy="8" input="SourceAlpha"/>
      <feGaussianBlur stdDeviation="6" result="blur-2"/>
      <feFlood flood-opacity="0.078"/>
      <feComposite operator="in" in2="blur-2"/>
      <feComposite in="SourceGraphic"/>
    </filter>
    <filter id="frame-3" x="0" y="77.703" width="158" height="136" filterUnits="userSpaceOnUse">
      <feOffset dy="8" input="SourceAlpha"/>
      <feGaussianBlur stdDeviation="6" result="blur-3"/>
      <feFlood flood-opacity="0.078"/>
      <feComposite operator="in" in2="blur-3"/>
      <feComposite in="SourceGraphic"/>
    </filter>
    <clipPath id="clip-path">
      <rect class="cls-1" width="98" height="60"/>
    </clipPath>
    <clipPath id="clip-path-2">
      <rect class="cls-1" width="14" height="58"/>
    </clipPath>
  </defs>
  <g id="Group_55" data-name="Group 55" transform="translate(-53 -210.297)">
    <g id="Calendar" transform="translate(541.636 146.804) rotate(92)">
      <g class="cls-13" transform="matrix(-0.03, -1, 1, -0.03, 80.51, 486.12)">
        <rect id="frame-4" data-name="frame" class="cls-2" width="77.093" height="82.027" rx="10" transform="translate(247.35 55.16) rotate(92)"/>
      </g>
    </g>
    <g id="Group_54" data-name="Group 54" transform="translate(32.674 -21.562) rotate(2)">
      <line id="Line_8" data-name="Line 8" class="cls-3" x2="54" transform="translate(209.5 292.5)"/>
      <line id="Line_9" data-name="Line 9" class="cls-4" x2="54" transform="translate(209.5 300.5)"/>
      <line id="Line_14" data-name="Line 14" class="cls-4" x2="54" transform="translate(209.5 324.5)"/>
      <line id="Line_11" data-name="Line 11" class="cls-4" x2="54" transform="translate(209.5 308.5)"/>
      <line id="Line_13" data-name="Line 13" class="cls-4" x2="54" transform="translate(209.5 332.5)"/>
      <line id="Line_10" data-name="Line 10" class="cls-4" x2="29" transform="translate(209.5 316.5)"/>
      <line id="Line_12" data-name="Line 12" class="cls-4" x2="29" transform="translate(209.5 340.5)"/>
    </g>
    <g id="Calendar-2" data-name="Calendar" transform="translate(411.641 19.897) rotate(70)">
      <g class="cls-12" transform="matrix(0.34, -0.94, 0.94, 0.34, 56.25, 402.13)">
        <rect id="frame-5" data-name="frame" class="cls-2" width="77.093" height="82.027" rx="10" transform="translate(179.37 10) rotate(70)"/>
      </g>
    </g>
    <g id="Group_53" data-name="Group 53" transform="translate(-123.331 54.452) rotate(-20)">
      <line id="Line_8-2" data-name="Line 8" class="cls-3" x2="54" transform="translate(209.5 292.5)"/>
      <line id="Line_9-2" data-name="Line 9" class="cls-4" x2="54" transform="translate(209.5 300.5)"/>
      <line id="Line_14-2" data-name="Line 14" class="cls-4" x2="54" transform="translate(209.5 324.5)"/>
      <line id="Line_11-2" data-name="Line 11" class="cls-4" x2="54" transform="translate(209.5 308.5)"/>
      <line id="Line_13-2" data-name="Line 13" class="cls-4" x2="54" transform="translate(209.5 332.5)"/>
      <line id="Line_10-2" data-name="Line 10" class="cls-4" x2="29" transform="translate(209.5 316.5)"/>
      <line id="Line_12-2" data-name="Line 12" class="cls-4" x2="29" transform="translate(209.5 340.5)"/>
    </g>
    <g id="Calendar-3" data-name="Calendar" transform="translate(-56 61)">
      <g class="cls-11" transform="matrix(1, 0, 0, 1, 109, 149.3)">
        <rect id="frame-6" data-name="frame" class="cls-2" width="122" height="100" rx="10" transform="translate(18 87.7)"/>
      </g>
      <g id="days" class="cls-5" transform="translate(140 268)">
        <g id="Group" transform="translate(-140 -308)">
          <rect id="Rectangle_20" data-name="Rectangle 20" class="cls-6" width="14" height="14" rx="7" transform="translate(140 308)"/>
        </g>
        <g id="Group-2" data-name="Group" transform="translate(-113 -308)">
          <rect id="Rectangle_20-2" data-name="Rectangle 20" class="cls-6" width="14" height="14" rx="7" transform="translate(140 308)"/>
        </g>
        <g id="Group-3" data-name="Group" transform="translate(-86 -308)">
          <rect id="Rectangle_20-3" data-name="Rectangle 20" class="cls-6" width="14" height="14" rx="7" transform="translate(140 308)"/>
        </g>
        <g id="Group-4" data-name="Group" transform="translate(-59 -308)">
          <rect id="Rectangle_20-4" data-name="Rectangle 20" class="cls-6" width="14" height="14" rx="7" transform="translate(140 308)"/>
        </g>
        <g id="Group-5" data-name="Group" transform="translate(-140 -286)">
          <rect id="Rectangle_20-5" data-name="Rectangle 20" class="cls-6" width="14" height="14" rx="7" transform="translate(140 308)"/>
        </g>
        <g id="Group-6" data-name="Group" transform="translate(-113 -286)">
          <rect id="Rectangle_20-6" data-name="Rectangle 20" class="cls-6" width="14" height="14" rx="7" transform="translate(140 308)"/>
        </g>
        <g id="Group-7" data-name="Group" transform="translate(-86 -286)">
          <rect id="Rectangle_20-7" data-name="Rectangle 20" class="cls-6" width="14" height="14" rx="7" transform="translate(140 308)"/>
        </g>
        <g id="Group-8" data-name="Group" transform="translate(-59 -286)">
          <rect id="Rectangle_20-8" data-name="Rectangle 20" class="cls-6" width="14" height="14" rx="7" transform="translate(140 308)"/>
        </g>
        <g id="Group-9" data-name="Group" transform="translate(-140 -264)">
          <rect id="Rectangle_20-9" data-name="Rectangle 20" class="cls-6" width="14" height="14" rx="7" transform="translate(140 308)"/>
        </g>
        <g id="Group-10" data-name="Group" transform="translate(-113 -264)">
          <rect id="Rectangle_20-10" data-name="Rectangle 20" class="cls-6" width="14" height="14" rx="7" transform="translate(140 308)"/>
        </g>
        <g id="Group-11" data-name="Group" transform="translate(-86 -264)">
          <rect id="Rectangle_20-11" data-name="Rectangle 20" class="cls-6" width="14" height="14" rx="7" transform="translate(140 308)"/>
        </g>
        <g id="Group-12" data-name="Group" transform="translate(-59 -264)">
          <rect id="Rectangle_20-12" data-name="Rectangle 20" class="cls-6" width="14" height="14" rx="7" transform="translate(140 308)"/>
        </g>
      </g>
      <path id="Top" class="cls-7" d="M10,0H112.02a10,10,0,0,1,10,10V20.337a0,0,0,0,1,0,0H0a0,0,0,0,1,0,0V10A10,10,0,0,1,10,0Z" transform="translate(127 237.201)"/>
      <g id="Group_52" data-name="Group 52" transform="translate(-2)">
        <rect id="hinge" class="cls-8" width="10" height="24" rx="5" transform="translate(149 227)"/>
        <rect id="hinge-2" data-name="hinge" class="cls-8" width="10" height="24" rx="5" transform="translate(167 227)"/>
        <rect id="hinge-3" data-name="hinge" class="cls-8" width="10" height="24" rx="5" transform="translate(185 227)"/>
        <rect id="hinge-4" data-name="hinge" class="cls-8" width="10" height="24" rx="5" transform="translate(203 227)"/>
        <rect id="hinge-5" data-name="hinge" class="cls-8" width="10" height="24" rx="5" transform="translate(221 227)"/>
      </g>
      <g id="marked" class="cls-9" transform="translate(221 268)">
        <g id="Group-13" data-name="Group" transform="translate(-221 -268)">
          <rect id="Rectangle_14" data-name="Rectangle 14" class="cls-10" width="14" height="14" rx="7" transform="translate(221 268)"/>
        </g>
        <g id="Group-14" data-name="Group" transform="translate(-221 -246)">
          <rect id="Rectangle_14-2" data-name="Rectangle 14" class="cls-10" width="14" height="14" rx="7" transform="translate(221 268)"/>
        </g>
        <g id="Group-15" data-name="Group" transform="translate(-221 -224)">
          <rect id="Rectangle_14-3" data-name="Rectangle 14" class="cls-10" width="14" height="14" rx="7" transform="translate(221 268)"/>
        </g>
      </g>
    </g>
  </g>
</svg>
